<svg xmlns="http://www.w3.org/2000/svg" width="24" height="24" viewBox="0 0 24 24"><path d="M12.026 2c-5.514 0-9.974 4.455-9.974 9.95 0 1.751.456 3.47 1.32 4.984l-1.39 5.085 5.165-1.357c1.477.814 3.14 1.241 4.879 1.241 5.515 0 9.974-4.455 9.974-9.95 0-5.495-4.459-9.95-9.974-9.95zm.005 18.405c-1.463 0-2.889-.39-4.144-1.134l-.297-.176-3.065.806.818-2.987-.193-.306c-.788-1.251-1.205-2.698-1.205-4.176 0-4.288 3.494-7.78 7.779-7.78 2.08 0 4.041.811 5.509 2.283 1.469 1.472 2.287 3.432 2.287 5.497-.001 4.288-3.495 7.779-7.779 7.779zm4.429-5.822c-.242-.121-1.436-.711-1.659-.792-.223-.081-.387-.121-.55.122-.163.243-.631.792-.775.953-.143.161-.288.182-.53.061-.242-.121-1.021-.376-1.943-1.196-.718-.638-1.201-1.426-1.342-1.669-.143-.243-.015-.374.106-.496.109-.109.242-.287.363-.43.121-.143.162-.243.242-.405.081-.162.04-.304-.02-.426-.061-.122-.551-1.335-.757-1.832-.199-.477-.4-.412-.55-.412-.143-.012-.304-.015-.466-.015-.162 0-.426.061-.648.284-.223.223-.849.829-.849 2.02 0 1.191.869 2.347.988 2.51.121.162 1.713 2.614 4.143 3.666.579.25 1.031.399 1.381.52.581.184 1.11.158 1.528.096.466-.071 1.436-.586 1.64-1.153.203-.567.203-1.052.143-1.153-.061-.101-.223-.162-.466-.284z"/></svg>
